<svg xmlns="http://www.w3.org/2000/svg" xmlns:xlink="http://www.w3.org/1999/xlink" width="1080" zoomAndPan="magnify" viewBox="0 0 810 809.999993" height="1080" preserveAspectRatio="xMidYMid meet" version="1.0"><rect x="-81" width="972" fill="#ffffff" y="-80.999999" height="971.999992" fill-opacity="1"/><rect x="-81" width="972" fill="#ffffff" y="-80.999999" height="971.999992" fill-opacity="1"/><path fill="#000000" d="M 322.300781 -8.152344 C 396.539062 265.71875 512.5 219.050781 622.535156 2.597656 C 622.535156 2.597656 482.960938 347.785156 822.949219 288.53125 C 692.703125 350.464844 611.445312 471.347656 800.910156 607.734375 C 713.601562 543.101562 483.40625 560.675781 586.992188 805.398438 C 586.992188 805.398438 519.667969 658.691406 427.285156 666.027344 C 334.886719 673.371094 300.4375 825.800781 300.4375 825.800781 C 300.4375 825.800781 324.53125 707.746094 265.339844 654.214844 C 206.136719 600.679688 21.734375 692.0625 21.734375 692.0625 C 153.363281 591.316406 271.964844 451.933594 -12.839844 421.875 C 80.355469 399.300781 289.601562 406.597656 93.578125 128.542969 C 340.039062 331.34375 346.394531 212.589844 322.300781 -8.152344 Z M 322.300781 -8.152344 " fill-opacity="1" fill-rule="evenodd"/><path fill="#ffb202" d="M 325.039062 16.667969 C 396.3125 274.140625 505.253906 229.632812 607.777344 25.285156 C 607.777344 25.285156 478.089844 350.996094 797.902344 293.519531 C 675.570312 352.46875 599.683594 466.675781 778.742188 594.160156 C 696.214844 533.734375 479.558594 551.425781 578.316406 781.339844 C 578.316406 781.339844 514.199219 643.53125 427.246094 650.902344 C 340.292969 658.273438 308.609375 801.96875 308.609375 801.96875 C 308.609375 801.96875 330.710938 690.691406 274.703125 640.585938 C 218.710938 590.480469 45.539062 677.433594 45.539062 677.433594 C 168.972656 581.914062 279.945312 450.09375 11.632812 423.207031 C 99.273438 401.484375 296.324219 407.320312 110.390625 146.496094 C 343.4375 336.214844 348.832031 224.378906 325.039062 16.667969 Z M 325.039062 16.667969 " fill-opacity="1" fill-rule="evenodd"/><path fill="#000000" d="M 359.894531 381.867188 L 380.84375 289.925781 C 381.578125 286.71875 384.003906 284.382812 387.238281 283.761719 L 459.105469 270.070312 C 462.039062 269.511719 464.828125 270.488281 466.769531 272.746094 C 468.710938 275.003906 469.269531 277.910156 468.28125 280.726562 C 435.390625 374.484375 407.972656 470.191406 384.703125 566.765625 C 383.925781 569.949219 381.527344 572.234375 378.320312 572.84375 L 272.710938 592.777344 C 270.023438 593.28125 267.484375 592.507812 265.519531 590.59375 C 263.5625 588.675781 262.753906 586.152344 263.210938 583.449219 C 270.972656 537.289062 274.097656 489.582031 275.046875 442.808594 C 276.011719 395.292969 276.355469 347.75 277.039062 300.21875 C 277.101562 296.449219 279.628906 293.300781 283.308594 292.4375 L 362.6875 273.824219 C 365.351562 273.203125 367.925781 273.863281 369.96875 275.703125 C 372.011719 277.542969 372.9375 280.042969 372.582031 282.757812 Z M 506.890625 450.488281 C 508.3125 451.363281 512.589844 451.527344 513.933594 451.527344 C 519.859375 451.503906 526.417969 450.335938 532.027344 449.21875 C 542.445312 446.882812 553.304688 445.257812 564.003906 445.234375 C 585.496094 445.171875 605.542969 452.328125 610.886719 475.167969 C 612.21875 480.875 612.6875 486.726562 612.699219 492.574219 C 612.75 514.375 603.894531 535.308594 592.589844 553.554688 C 574.636719 582.546875 550.019531 605.453125 521.050781 623.226562 C 505.761719 632.617188 488.910156 638.835938 470.792969 638.886719 C 454.753906 638.9375 439.808594 634.101562 426.078125 625.980469 C 422.601562 623.925781 421.179688 619.726562 422.679688 615.96875 C 432.535156 591.378906 443.5 566.992188 454.398438 542.859375 C 455.441406 540.5625 457.265625 539.015625 459.691406 538.367188 C 462.113281 537.707031 464.472656 538.125 466.515625 539.597656 C 473.191406 544.355469 480.539062 547.121094 488.773438 547.097656 C 492.464844 547.085938 496.105469 546.410156 499.648438 545.371094 C 499.683594 545.347656 499.734375 545.347656 499.785156 545.320312 C 507.285156 543.253906 514.53125 540.386719 521.320312 536.578125 C 524.414062 534.828125 533.066406 529.484375 533.054688 525.160156 C 533.054688 525.007812 533.054688 524.625 532.980469 524.472656 C 531.914062 523.230469 526.355469 523.027344 524.898438 523.027344 C 515.214844 523.050781 503.707031 525.488281 494.277344 527.609375 C 483.660156 529.992188 471.109375 532.605469 460.210938 532.644531 C 450.746094 532.671875 440.707031 531.058594 432.957031 525.550781 C 418.972656 515.996094 414.785156 501.089844 416.636719 484.757812 C 421.195312 444.789062 449.589844 404.796875 475.054688 375.09375 C 497.515625 348.890625 534.628906 310.445312 571.398438 307.765625 C 579.382812 307.195312 587.375 308.464844 594.339844 312.550781 C 614.070312 324.109375 617.140625 352.480469 617.191406 373.011719 C 617.21875 384.074219 616.40625 395.214844 615.199219 406.21875 C 614.859375 409.300781 612.96875 411.761719 610.085938 412.890625 C 600.039062 416.824219 590.027344 420.835938 580.015625 424.84375 L 550.300781 436.734375 C 547.722656 437.773438 545.046875 437.480469 542.75 435.933594 C 540.441406 434.371094 539.171875 432 539.171875 429.222656 C 539.160156 427.253906 538.878906 419.539062 537.179688 418.117188 C 537.089844 418.09375 536.976562 418.117188 536.886719 418.117188 C 527.675781 418.144531 519.3125 425.960938 513.871094 432.40625 C 509.835938 437.355469 506.015625 443.789062 506.890625 450.488281 Z M 506.890625 450.488281 " fill-opacity="1" fill-rule="evenodd"/><path fill="#000000" d="M 339.554688 360.222656 L 360.503906 268.292969 C 361.226562 265.082031 363.652344 262.734375 366.898438 262.125 L 438.765625 248.4375 C 441.683594 247.878906 444.488281 248.855469 446.429688 251.113281 C 448.371094 253.371094 448.929688 256.277344 447.941406 259.09375 C 415.050781 352.847656 387.632812 448.558594 364.363281 545.128906 C 363.585938 548.300781 361.175781 550.597656 357.964844 551.207031 L 252.375 571.140625 C 249.683594 571.648438 247.132812 570.875 245.179688 568.960938 C 243.226562 567.042969 242.414062 564.519531 242.855469 561.816406 C 250.636719 515.640625 253.757812 467.945312 254.707031 421.175781 C 255.671875 373.644531 256.015625 326.113281 256.699219 278.582031 C 256.761719 274.816406 259.289062 271.65625 262.96875 270.804688 L 342.347656 252.191406 C 345.011719 251.570312 347.585938 252.230469 349.628906 254.070312 C 351.671875 255.910156 352.585938 258.410156 352.246094 261.125 Z M 486.550781 428.839844 C 487.972656 429.714844 492.25 429.894531 493.59375 429.882812 C 499.519531 429.867188 506.078125 428.6875 511.6875 427.570312 C 522.105469 425.25 532.964844 423.625 543.664062 423.601562 C 565.15625 423.535156 585.203125 430.691406 590.546875 453.53125 C 591.878906 459.242188 592.335938 465.089844 592.359375 470.941406 C 592.410156 492.738281 583.554688 513.675781 572.25 531.921875 C 554.296875 560.914062 529.679688 583.816406 500.710938 601.59375 C 485.421875 610.984375 468.574219 617.199219 450.453125 617.25 C 434.414062 617.289062 419.46875 612.46875 405.738281 604.347656 C 402.261719 602.292969 400.828125 598.078125 402.339844 594.335938 C 412.199219 569.746094 423.160156 545.359375 434.058594 521.210938 C 435.101562 518.929688 436.914062 517.378906 439.351562 516.722656 C 441.773438 516.074219 444.132812 516.492188 446.175781 517.953125 C 452.851562 522.722656 460.199219 525.488281 468.433594 525.464844 C 472.125 525.449219 475.765625 524.777344 479.292969 523.726562 C 479.34375 523.710938 479.394531 523.699219 479.433594 523.6875 C 486.945312 521.617188 494.191406 518.75 500.980469 514.933594 C 504.074219 513.195312 512.726562 507.851562 512.714844 503.523438 C 512.714844 503.359375 512.714844 502.992188 512.640625 502.839844 C 511.5625 501.597656 506.015625 501.378906 504.558594 501.394531 C 494.875 501.417969 483.367188 503.84375 473.941406 505.960938 C 463.320312 508.359375 450.769531 510.972656 439.859375 511.011719 C 430.40625 511.035156 420.367188 509.425781 412.617188 503.917969 C 398.632812 494.351562 394.433594 479.453125 396.296875 463.125 C 400.855469 423.144531 429.25 383.148438 454.714844 353.445312 C 477.175781 327.242188 514.289062 288.808594 551.058594 286.132812 C 559.042969 285.5625 567.035156 286.832031 574 290.917969 C 593.730469 302.476562 596.800781 330.847656 596.851562 351.363281 C 596.878906 362.441406 596.066406 373.582031 594.859375 384.582031 C 594.519531 387.667969 592.628906 390.128906 589.746094 391.257812 C 579.699219 395.179688 569.6875 399.199219 559.675781 403.195312 L 529.960938 415.097656 C 527.382812 416.125 524.707031 415.847656 522.410156 414.285156 C 520.101562 412.738281 518.832031 410.351562 518.832031 407.585938 C 518.820312 405.621094 518.539062 397.894531 516.839844 396.472656 C 516.75 396.445312 516.636719 396.484375 516.546875 396.484375 C 507.335938 396.511719 498.972656 404.328125 493.53125 410.757812 C 489.496094 415.71875 485.675781 422.152344 486.550781 428.839844 Z M 486.550781 428.839844 " fill-opacity="1" fill-rule="evenodd"/><path fill="#fefefe" d="M 440.277344 256.402344 C 409 345.566406 381.074219 441.148438 356.46875 543.226562 L 250.863281 563.160156 C 257.410156 524.347656 261.34375 477.070312 262.828125 421.339844 C 263.4375 373.796875 264.136719 326.242188 264.820312 278.699219 L 344.199219 260.097656 L 310.726562 521.542969 L 311.132812 521.542969 L 368.410156 270.09375 Z M 440.277344 256.402344 " fill-opacity="1" fill-rule="nonzero"/><path fill="#fefefe" d="M 586.789062 383.695312 C 578.328125 387.007812 568.304688 390.953125 556.667969 395.671875 L 526.9375 407.5625 C 526.914062 394.773438 523.4375 388.351562 516.523438 388.363281 C 506.765625 388.390625 496.957031 394.148438 487.222656 405.644531 C 480.335938 414.121094 477.441406 422.304688 478.546875 430.210938 C 479.371094 435.453125 484.394531 438.027344 493.621094 438 C 498.695312 437.988281 505.265625 437.125 513.464844 435.503906 C 524.847656 432.953125 534.933594 431.734375 543.675781 431.707031 C 565.90625 431.644531 578.875 439.511719 582.640625 455.371094 C 583.746094 460.332031 584.226562 465.511719 584.242188 470.964844 C 584.292969 488.4375 578.035156 507.332031 565.347656 527.644531 C 549.015625 554.191406 526.039062 576.558594 496.472656 594.679688 C 480.84375 604.296875 465.539062 609.09375 450.429688 609.132812 C 436.671875 609.167969 423.171875 605.222656 409.875 597.355469 C 416.460938 580.910156 426.980469 556.625 441.457031 524.5625 C 449.945312 530.613281 458.96875 533.597656 468.457031 533.570312 C 472.722656 533.558594 477.0625 532.847656 481.601562 531.515625 C 489.789062 529.257812 497.578125 526.085938 504.949219 522.011719 C 515.570312 515.972656 520.847656 509.804688 520.824219 503.511719 C 520.8125 496.660156 515.378906 493.246094 504.53125 493.273438 C 497.082031 493.296875 486.3125 494.859375 472.152344 498.042969 C 458.003906 501.226562 447.230469 502.863281 439.84375 502.890625 C 430.011719 502.914062 422.488281 500.976562 417.195312 497.21875 C 406.804688 490.113281 402.578125 479.085938 404.367188 464.039062 C 407.742188 433.765625 426.5625 398.679688 460.871094 358.738281 C 495.941406 317.742188 526.242188 296.183594 551.644531 294.230469 C 576.246094 292.554688 588.628906 311.613281 588.730469 351.390625 C 588.757812 360.894531 588.109375 371.667969 586.792969 383.695312 Z M 586.789062 383.695312 " fill-opacity="1" fill-rule="nonzero"/><path fill="#000000" d="M 130.894531 797.464844 L 161.800781 811.296875 L 237.121094 675.910156 Z M 130.894531 797.464844 " fill-opacity="1" fill-rule="evenodd"/><path fill="#000000" d="M 106.710938 746.75 L 195.035156 687.824219 L 122.390625 759.65625 Z M 106.710938 746.75 " fill-opacity="1" fill-rule="evenodd"/><path fill="#000000" d="M 762.515625 99.703125 L 736.679688 83.054688 L 650.5 194.207031 Z M 762.515625 99.703125 " fill-opacity="1" fill-rule="evenodd"/><path fill="#000000" d="M 777.257812 148.539062 L 689.898438 189.292969 L 764.949219 134.796875 Z M 777.257812 148.539062 " fill-opacity="1" fill-rule="evenodd"/><path fill="#000000" d="M 151.777344 53.234375 L 137.25 65.910156 L 225.738281 145.152344 Z M 151.777344 53.234375 " fill-opacity="1" fill-rule="evenodd"/><path fill="#000000" d="M 165.773438 -15.699219 L 249.238281 160.734375 L 142.542969 4.371094 Z M 165.773438 -15.699219 " fill-opacity="1" fill-rule="evenodd"/><path fill="#000000" d="M 221.25 10.703125 L 249.238281 127.984375 L 206.453125 15.460938 Z M 221.25 10.703125 " fill-opacity="1" fill-rule="evenodd"/><path fill="#000000" d="M 726.566406 727.882812 L 738.570312 717.402344 L 665.433594 651.902344 Z M 726.566406 727.882812 " fill-opacity="1" fill-rule="evenodd"/><path fill="#000000" d="M 714.996094 784.867188 L 645.996094 639.023438 L 734.207031 768.269531 Z M 714.996094 784.867188 " fill-opacity="1" fill-rule="evenodd"/><path fill="#000000" d="M 669.140625 763.03125 L 645.996094 666.089844 L 681.371094 759.097656 Z M 669.140625 763.03125 " fill-opacity="1" fill-rule="evenodd"/></svg>